pedal_clip_forces_x_-0.1_y_-0.05.mot
version=1
nRows=125
nColumns=4
inDegrees=yes
endheader
time	PedalClip_calcn_r_Fx	PedalClip_calcn_r_Fy	PedalClip_calcn_r_Fz
0.23501577	-267.615010794037	429.548696345083	0
0.23515722	-268.206653880248	430.666059599539	0
0.23529702	-268.798673647012	431.784650537714	0
0.23543838	-269.391049943931	432.90443092609	0
0.23557812	-269.983762434736	434.025362274412	0
0.23571939	-270.576792508192	435.147409328824	0
0.23585908	-271.170121702007	436.270537207149	0
0.23600025	-271.763733560348	437.394714782521	0
0.2361399	-272.357612061368	438.519911813181	0
0.23628099	-272.95174341465	439.646102209758	0
0.23642059	-273.546114485978	440.773261152839	0
0.2365616	-274.140714529481	441.901368240531	0
0.23670116	-274.735533606465	443.030404592415	0
0.23684209	-275.330564250052	444.16035587836	0
0.23698163	-275.925799879124	445.291209413128	0
0.23712249	-276.521236397012	446.422957071779	0
0.237262	-277.116870606323	447.555592385016	0
0.23740279	-277.712701750561	448.689113357886	0
0.23754229	-278.308729956711	449.823519614457	0
0.23768301	-278.904957755566	450.958815186826	0
0.23782251	-279.501388570199	452.095005746682	0
0.23796317	-280.098028216179	453.232101363805	0
0.23810268	-280.694883425979	454.37011380738	0
0.23824329	-281.291963321362	455.509059256917	0
0.23838281	-281.889277965346	456.648955658089	0
0.23852338	-282.486839798418	457.789825369985	0
0.23866293	-283.084662211283	458.931692562887	0
0.23880346	-283.682760935939	460.074585786176	0
0.23894305	-284.281152632463	461.218535394384	0
0.23908355	-284.879856225216	462.363576018917	0
0.23922319	-285.478891498603	463.509744009506	0
0.23936367	-286.078280369661	464.657079794035	0
0.23950337	-286.67804549231	465.805625328017	0
0.23964385	-287.278211460147	466.955426330423	0
0.23978362	-287.878803423396	468.106529739607	0
0.23992409	-288.47984821805	469.25898581689	0
0.24006394	-289.081373003869	470.41284561326	0
0.24020443	-289.68340631768	471.568162936498	0
0.24034436	-290.285976743128	472.724991838023	0
0.24048487	-290.889113886751	473.883388443276	0
0.2406249	-291.492847089888	475.043408471569	0
0.24076544	-292.097206326378	476.205108933367	0
0.24090558	-292.702220964047	477.368545697769	0
0.24104615	-293.307920583458	478.533775065097	0
0.24118639	-293.914333791985	479.700851397478	0
0.24132702	-294.521488965619	480.869828581883	0
0.24146738	-295.129413115068	482.040757741076	0
0.24160806	-295.738132559069	483.213688612338	0
0.24174853	-296.347671842151	484.388667360712	0
0.24188929	-296.958054359502	485.565737912632	0
0.24202987	-297.569301331903	486.744939901886	0
0.2421707	-298.181432418188	487.926310013568	0
0.24231141	-298.794464763645	489.109880103779	0
0.24245233	-299.408413652095	490.29567862288	0
0.24259316	-300.023291654964	491.483728957257	0
0.24273418	-300.639109382905	492.674051003629	0
0.24287514	-301.255874765375	493.86665977698	0
0.24301625	-301.873593952202	495.061567190415	0
0.24315734	-302.492270739931	496.258780949384	0
0.24329857	-303.111907641208	497.4583065478	0
0.2434398	-303.732505442004	498.660146420505	0
0.24358114	-304.354064403734	499.864302095369	0
0.24372251	-304.976583889674	501.07077350409	0
0.24386398	-305.600063599711	502.279561134497	0
0.24400549	-306.224503150011	503.490665304387	0
0.2441471	-306.849903165691	504.704088035964	0
0.24428876	-307.476264630733	505.91983197308	0
0.24443051	-308.103589625871	507.137901635959	0
0.24457232	-308.73188047973	508.358302011626	0
0.24471423	-309.361140389659	509.581039615105	0
0.2448562	-309.991372674787	510.806121228555	0
0.24499826	-310.622581355978	512.033554902961	0
0.2451404	-311.254770513633	513.263348852674	0
0.24528263	-311.887944817089	514.495512381542	0
0.24542494	-312.52210897076	515.730054912729	0
0.24556735	-313.157268187884	516.966986828307	0
0.24570984	-313.793427712041	518.206318617073	0
0.24585244	-314.43059323379	519.448061622023	0
0.24599512	-315.068770478311	520.692227293568	0
0.24613791	-315.707965566298	521.938827843904	0
0.24628079	-316.348184661167	523.187875595504	0
0.24642377	-316.989434278414	524.439383545511	0
0.24656686	-317.631720987895	525.693364803313	0
0.24671006	-318.275051676503	526.949833071627	0
0.24685336	-318.919433298825	528.208802164445	0
0.24699678	-319.56487310322	529.470286417848	0
0.24714031	-320.211378442472	530.73430030082	0
0.24728396	-320.858956998455	532.00085879767	0
0.24742773	-321.507616693752	533.26997715802	0
0.24757162	-322.157365995248	534.541671335894	0
0.24771563	-322.808214063045	535.815957969103	0
0.24785977	-323.460171379555	537.092854994047	0
0.24800404	-324.113250377203	538.372381955524	0
0.24814845	-324.767466269997	539.654560864005	0
0.24829299	-325.422836977273	540.939416749408	0
0.24843767	-326.079381694645	542.226978436621	0
0.24858249	-326.737118585369	543.517278636646	0
0.24872746	-327.396063655752	544.810353456793	0
0.24887257	-328.056230455579	546.106240199228	0
0.24901784	-328.717630381264	547.404974258009	0
0.24916327	-329.380273085159	548.70658711997	0
0.24930885	-330.044166996645	550.011106036089	0
0.24945459	-330.709319716147	551.318554407146	0
0.2496005	-331.375738390856	552.628952633481	0
0.24974658	-332.04342994949	553.942318910482	0
0.24989283	-332.712401314691	555.258670027438	0
0.25003926	-333.382659513889	556.578021944966	0
0.25018587	-334.05421178565	557.90039029916	0
0.25033267	-334.727065621317	559.225790718942	0
0.25047965	-335.401228814493	560.55423909597	0
0.25062683	-336.076709470471	561.885751732169	0
0.2507742	-336.753516028419	563.220345471565	0
0.25092177	-337.431657258539	564.558037758733	0
0.25106955	-338.111142272354	565.898846700183	0
0.25121754	-338.791980517049	567.24279252787	0
0.25136574	-339.474181781283	568.589901251824	0
0.25151416	-340.157756190666	569.940199131267	0
0.2516628	-340.842714212497	571.293711135292	0
0.25181166	-341.52906665376	572.650460965293	0
0.25196076	-342.216824666307	574.010471042028	0
0.25211009	-342.905999747721	575.373762441975	0
0.25225967	-343.59660374763	576.740354803649	0
0.25240948	-344.288648871435	578.110266190651	0
0.25255955	-344.9821476882	579.483512923553	0
0.25270988	-345.677113137267	580.860109369054	0
